<mxfile host="Electron" modified="2024-01-28T11:21:46.248Z" agent="Mozilla/5.0 (Windows NT 10.0; Win64; x64) AppleWebKit/537.36 (KHTML, like Gecko) draw.io/22.0.3 Chrome/114.0.5735.289 Electron/25.8.4 Safari/537.36" etag="eWG7vkP6MOfhgLG-7WVJ" version="22.0.3" type="device">
  <diagram name="Pagina-1" id="tBscNTWt5n6Lq3RqmwH3">
    <mxGraphModel dx="1215" dy="577" grid="1" gridSize="10" guides="1" tooltips="1" connect="1" arrows="1" fold="1" page="1" pageScale="1" pageWidth="827" pageHeight="1169" math="0" shadow="0">
      <root>
        <mxCell id="0" />
        <mxCell id="1" parent="0" />
        <mxCell id="_b1LvEiJ5TB_l9y6HCiO-1" value="First and second generation languages" style="rounded=0;whiteSpace=wrap;html=1;" vertex="1" parent="1">
          <mxGeometry x="630" y="90" width="190" height="70" as="geometry" />
        </mxCell>
        <mxCell id="_b1LvEiJ5TB_l9y6HCiO-2" value="Low-level languages" style="rounded=0;whiteSpace=wrap;html=1;" vertex="1" parent="1">
          <mxGeometry x="550" y="190" width="70" height="40" as="geometry" />
        </mxCell>
        <mxCell id="_b1LvEiJ5TB_l9y6HCiO-3" value="High-level languages" style="rounded=0;whiteSpace=wrap;html=1;" vertex="1" parent="1">
          <mxGeometry x="820" y="190" width="70" height="40" as="geometry" />
        </mxCell>
        <mxCell id="_b1LvEiJ5TB_l9y6HCiO-4" value="" style="endArrow=none;html=1;rounded=0;entryX=0;entryY=0.5;entryDx=0;entryDy=0;" edge="1" parent="1" target="_b1LvEiJ5TB_l9y6HCiO-1">
          <mxGeometry width="50" height="50" relative="1" as="geometry">
            <mxPoint x="580" y="190" as="sourcePoint" />
            <mxPoint x="630" y="140" as="targetPoint" />
          </mxGeometry>
        </mxCell>
        <mxCell id="_b1LvEiJ5TB_l9y6HCiO-5" value="" style="endArrow=none;html=1;rounded=0;entryX=1;entryY=0.5;entryDx=0;entryDy=0;exitX=0.5;exitY=0;exitDx=0;exitDy=0;" edge="1" parent="1" source="_b1LvEiJ5TB_l9y6HCiO-3" target="_b1LvEiJ5TB_l9y6HCiO-1">
          <mxGeometry width="50" height="50" relative="1" as="geometry">
            <mxPoint x="590" y="200" as="sourcePoint" />
            <mxPoint x="650" y="135" as="targetPoint" />
          </mxGeometry>
        </mxCell>
        <mxCell id="_b1LvEiJ5TB_l9y6HCiO-6" value="Natural language&lt;br&gt;Manipulate the hardware&lt;br&gt;Needs to be translated&amp;nbsp;" style="rounded=0;whiteSpace=wrap;html=1;" vertex="1" parent="1">
          <mxGeometry x="500" y="270" width="130" height="70" as="geometry" />
        </mxCell>
        <mxCell id="_b1LvEiJ5TB_l9y6HCiO-7" value="Needs to be translated&lt;br&gt;Syntax is not closer to natural language&lt;br&gt;Executable" style="rounded=0;whiteSpace=wrap;html=1;" vertex="1" parent="1">
          <mxGeometry x="810" y="270" width="140" height="60" as="geometry" />
        </mxCell>
        <mxCell id="_b1LvEiJ5TB_l9y6HCiO-8" value="" style="endArrow=none;html=1;rounded=0;entryX=0.42;entryY=1.007;entryDx=0;entryDy=0;exitX=0.5;exitY=0;exitDx=0;exitDy=0;entryPerimeter=0;" edge="1" parent="1" source="_b1LvEiJ5TB_l9y6HCiO-6" target="_b1LvEiJ5TB_l9y6HCiO-2">
          <mxGeometry width="50" height="50" relative="1" as="geometry">
            <mxPoint x="590" y="200" as="sourcePoint" />
            <mxPoint x="650" y="135" as="targetPoint" />
          </mxGeometry>
        </mxCell>
        <mxCell id="_b1LvEiJ5TB_l9y6HCiO-9" value="" style="endArrow=none;html=1;rounded=0;entryX=0.42;entryY=1.007;entryDx=0;entryDy=0;exitX=0.5;exitY=0;exitDx=0;exitDy=0;entryPerimeter=0;" edge="1" parent="1" source="_b1LvEiJ5TB_l9y6HCiO-7">
          <mxGeometry width="50" height="50" relative="1" as="geometry">
            <mxPoint x="848" y="270" as="sourcePoint" />
            <mxPoint x="862" y="230" as="targetPoint" />
          </mxGeometry>
        </mxCell>
        <mxCell id="_b1LvEiJ5TB_l9y6HCiO-11" value="Different generations based on hardware" style="rounded=0;whiteSpace=wrap;html=1;" vertex="1" parent="1">
          <mxGeometry x="280" y="380" width="120" height="60" as="geometry" />
        </mxCell>
        <mxCell id="_b1LvEiJ5TB_l9y6HCiO-12" value="First generation (1940) -&amp;nbsp;&lt;br&gt;Machine language/Machine code&lt;br&gt;&lt;br&gt;0X200&amp;nbsp; 65 75 89&amp;nbsp; 011101010101 85&lt;br&gt;&lt;br&gt;Opcode/Operation Code = Action&lt;br&gt;Operand/Memory address&lt;br&gt;&lt;br&gt;Pros: Made everything easier&lt;br&gt;Cons: Machine-dependent" style="rounded=0;whiteSpace=wrap;html=1;" vertex="1" parent="1">
          <mxGeometry x="80" y="460" width="220" height="180" as="geometry" />
        </mxCell>
        <mxCell id="_b1LvEiJ5TB_l9y6HCiO-13" value="Second generation (1950) -&amp;nbsp;&lt;br&gt;Assembly language&lt;br&gt;Example: ADD&amp;nbsp; 0X, RAX&lt;br&gt;&lt;br&gt;Features:&lt;br&gt;- Transforms binary code into something mnemonical (memorizable)&lt;br&gt;- More intelligible&lt;br&gt;- Less subject to errors&lt;br&gt;- Still machine-dependent" style="rounded=0;whiteSpace=wrap;html=1;" vertex="1" parent="1">
          <mxGeometry x="430" y="460" width="280" height="170" as="geometry" />
        </mxCell>
        <mxCell id="_b1LvEiJ5TB_l9y6HCiO-15" value="Third generation (1950s-1960s onwards)&lt;br&gt;&lt;br&gt;Ideas:&lt;br style=&quot;border-color: var(--border-color);&quot;&gt;- Not machine dependent&lt;br style=&quot;border-color: var(--border-color);&quot;&gt;- Increase code reuse&lt;br&gt;&lt;br&gt;- Procedural languages: based on procedures (functions)&lt;br&gt;(es. PASCAL, BASIC, Fortran, C)&lt;br&gt;&lt;br&gt;Features:&lt;br&gt;- Subroutines: section of a program can be incorporated into a complete program&lt;br&gt;- Such functions can be nested one inside the other, elevating the complexity and expression of programs&lt;br&gt;&lt;br&gt;- Modular programming: separates functionalities in an independent way&lt;br&gt;&lt;br&gt;Features:&lt;br&gt;- Structured programming: easy, correct, reliable" style="rounded=0;whiteSpace=wrap;html=1;" vertex="1" parent="1">
          <mxGeometry x="800" y="375" width="290" height="340" as="geometry" />
        </mxCell>
        <mxCell id="_b1LvEiJ5TB_l9y6HCiO-20" value="Fourth generation (1970s-1990s onwards)&lt;br&gt;&lt;br&gt;- Non-procedural languages&lt;br&gt;&lt;br&gt;Features:&lt;br&gt;- Indicate the program what do do, not how to do it, &lt;br&gt;- Used to retrieve data (es. SQL)&lt;br&gt;- More similar to natural languages&lt;br&gt;&amp;nbsp;&lt;br&gt;- Markup languages&lt;br&gt;&lt;br&gt;Features:&lt;br&gt;- They don&#39;t do logical operations, but just format the page&lt;br&gt;- Also called declarative languages), telling how texts are edited&lt;br&gt;- They use tags interpreted by browsers" style="rounded=0;whiteSpace=wrap;html=1;" vertex="1" parent="1">
          <mxGeometry x="1150" y="400" width="310" height="260" as="geometry" />
        </mxCell>
        <mxCell id="_b1LvEiJ5TB_l9y6HCiO-21" value="" style="endArrow=classic;html=1;rounded=0;entryX=0;entryY=0.5;entryDx=0;entryDy=0;exitX=0.991;exitY=0.47;exitDx=0;exitDy=0;exitPerimeter=0;" edge="1" parent="1" source="_b1LvEiJ5TB_l9y6HCiO-12" target="_b1LvEiJ5TB_l9y6HCiO-13">
          <mxGeometry width="50" height="50" relative="1" as="geometry">
            <mxPoint x="300" y="620" as="sourcePoint" />
            <mxPoint x="350" y="570" as="targetPoint" />
          </mxGeometry>
        </mxCell>
        <mxCell id="_b1LvEiJ5TB_l9y6HCiO-22" value="" style="endArrow=classic;html=1;rounded=0;exitX=0.991;exitY=0.47;exitDx=0;exitDy=0;exitPerimeter=0;" edge="1" parent="1">
          <mxGeometry width="50" height="50" relative="1" as="geometry">
            <mxPoint x="710" y="549.62" as="sourcePoint" />
            <mxPoint x="800" y="550" as="targetPoint" />
          </mxGeometry>
        </mxCell>
        <mxCell id="_b1LvEiJ5TB_l9y6HCiO-23" value="" style="endArrow=classic;html=1;rounded=0;entryX=0.003;entryY=0.563;entryDx=0;entryDy=0;exitX=0.991;exitY=0.47;exitDx=0;exitDy=0;exitPerimeter=0;entryPerimeter=0;" edge="1" parent="1" target="_b1LvEiJ5TB_l9y6HCiO-20">
          <mxGeometry width="50" height="50" relative="1" as="geometry">
            <mxPoint x="1090" y="544.62" as="sourcePoint" />
            <mxPoint x="1222" y="544.62" as="targetPoint" />
          </mxGeometry>
        </mxCell>
        <mxCell id="_b1LvEiJ5TB_l9y6HCiO-25" value="" style="curved=1;endArrow=classic;html=1;rounded=0;exitX=0;exitY=0.5;exitDx=0;exitDy=0;entryX=0.437;entryY=0.012;entryDx=0;entryDy=0;entryPerimeter=0;" edge="1" parent="1" source="_b1LvEiJ5TB_l9y6HCiO-11" target="_b1LvEiJ5TB_l9y6HCiO-12">
          <mxGeometry width="50" height="50" relative="1" as="geometry">
            <mxPoint x="440" y="480" as="sourcePoint" />
            <mxPoint x="490" y="430" as="targetPoint" />
            <Array as="points">
              <mxPoint x="230" y="430" />
              <mxPoint x="150" y="430" />
            </Array>
          </mxGeometry>
        </mxCell>
        <mxCell id="_b1LvEiJ5TB_l9y6HCiO-27" value="Fifth and sixth generation (1970s-1990s onwards)&lt;br&gt;&lt;br&gt;- Constraint-based programming&lt;br&gt;&lt;br&gt;Features:&lt;br&gt;- They don&#39;t indicate steps or a sequence of steps&lt;br&gt;- Selection of options based on the constraints&lt;br&gt;- If/Conditions to filter input or output of program&lt;br&gt;- Limited by nature of the program underlying&lt;br&gt;&amp;nbsp;&lt;br&gt;- Logic programming languages&lt;br&gt;&lt;br&gt;Features:&lt;br&gt;- More mathematical programs&lt;br&gt;- Used to solve queries based on functional programming&lt;br&gt;- Examples: LISP, Clojure&lt;br&gt;&lt;span style=&quot;background-color: rgba(80, 151, 255, 0.18); color: rgb(4, 12, 40); font-family: &amp;quot;Google Sans&amp;quot;, arial, sans-serif; font-size: 20px; text-align: left;&quot;&gt;&lt;/span&gt;" style="rounded=0;whiteSpace=wrap;html=1;" vertex="1" parent="1">
          <mxGeometry x="1580" y="390" width="380" height="290" as="geometry" />
        </mxCell>
        <mxCell id="_b1LvEiJ5TB_l9y6HCiO-28" value="" style="endArrow=classic;html=1;rounded=0;exitX=0.991;exitY=0.47;exitDx=0;exitDy=0;exitPerimeter=0;" edge="1" parent="1" target="_b1LvEiJ5TB_l9y6HCiO-27">
          <mxGeometry width="50" height="50" relative="1" as="geometry">
            <mxPoint x="1460" y="529.3100000000001" as="sourcePoint" />
            <mxPoint x="1521" y="530.69" as="targetPoint" />
          </mxGeometry>
        </mxCell>
      </root>
    </mxGraphModel>
  </diagram>
</mxfile>
